<svg xmlns="http://www.w3.org/2000/svg" xmlns:xlink="http://www.w3.org/1999/xlink" viewBox="0 0 410.24 413.79"><defs><style>.cls-1{isolation:isolate;}.cls-2{fill:#80b4d6;}.cls-18,.cls-3,.cls-4{fill:#2d508a;}.cls-4{opacity:0.3;mix-blend-mode:screen;}.cls-5{fill:#2c3673;}.cls-6{fill:#28225e;}.cls-7{fill:#f04e70;}.cls-8{fill:#c73855;}.cls-9{fill:#fff;}.cls-10{fill:#dde3e8;}.cls-11{fill:#9dc8eb;}.cls-12{fill:#985b29;}.cls-13{fill:#4b290d;}.cls-14{fill:#88a2ca;}.cls-15{fill:#c0c8ce;}.cls-16{fill:#ffb591;}.cls-17{fill:url(#Degradado_sin_nombre_6);}.cls-18{opacity:0.5;mix-blend-mode:multiply;}.cls-19{fill:#ff8671;}.cls-20{fill:url(#Degradado_sin_nombre_6-2);}.cls-21{fill:#7ca0d1;}.cls-22{fill:#e0e0e0;}</style><linearGradient id="Degradado_sin_nombre_6" x1="400.72" y1="316.41" x2="325.96" y2="224.03" gradientUnits="userSpaceOnUse"><stop offset="0" stop-color="#fff"/><stop offset="0.22" stop-color="#fff" stop-opacity="0.76"/><stop offset="0.6" stop-color="#fff" stop-opacity="0.36"/><stop offset="0.87" stop-color="#fff" stop-opacity="0.1"/><stop offset="1" stop-color="#fff" stop-opacity="0"/></linearGradient><linearGradient id="Degradado_sin_nombre_6-2" x1="183.2" y1="172.98" x2="108.86" y2="81.13" xlink:href="#Degradado_sin_nombre_6"/></defs><title>fital-rocket-group</title><g class="cls-1"><g id="Layer_2" data-name="Layer 2"><g id="OBJECTS"><polygon class="cls-2" points="0 295.48 204.93 413.79 410.24 295.26 205.12 177.27 0 295.48"/><polygon class="cls-3" points="15.57 253.42 205.12 362.85 395.02 253.21 205.29 144.08 15.57 253.42"/><polygon class="cls-4" points="36.99 253.43 205.3 156.43 373.58 253.23 205.12 350.49 36.99 253.43"/><polygon class="cls-5" points="15.57 253.42 15.57 291.15 205.12 400.58 205.12 362.85 15.57 253.42"/><polygon class="cls-6" points="395.02 253.21 205.12 362.85 205.12 400.58 395.02 290.95 395.02 253.21"/><path class="cls-7" d="M302.6,228.66l1.64-.56s-1.27-19.68-10.45-34.72c-8.52-13.95-15.07-17.44-15.07-17.44l-1.85,1S296.36,194.79,302.6,228.66Z"/><path class="cls-8" d="M276.87,177s21.31,14.37,25.73,51.7c-8.89-9.83-17.62-17.78-25.73-18.58Z"/><path class="cls-9" d="M288.72,228.15c0,9.79-11.4,17.78-25.56,17.85s-25.68-7.82-25.73-17.61l-.31-69.55,51.29-.24.3,69C288.72,227.78,288.72,228,288.72,228.15Z"/><path class="cls-3" d="M288.41,158.6S280.65,169,262.8,169.12s-25.68-10.28-25.68-10.28,2.17-37,25.39-56.79C285.9,121.65,288.41,158.6,288.41,158.6Z"/><path class="cls-5" d="M288.41,158.6S280.65,169,262.8,169.12s-25.68-10.28-25.68-10.28c7,5.94,29.08,11.57,34.7-4.86s-9.31-51.93-9.31-51.93C285.9,121.65,288.41,158.6,288.41,158.6Z"/><path class="cls-8" d="M288.77,239.69c.05,9.79-11.4,17.78-25.56,17.84s-25.68-7.82-25.72-17.61l-.06-11.53c0,9.79,11.56,17.67,25.73,17.61,13.89-.07,25.17-7.76,25.55-17.3l.05,10.44C288.77,239.32,288.77,239.5,288.77,239.69Z"/><path class="cls-7" d="M288.75,235c0,.18,0,.37,0,.55-.38,9.54-11.66,17.23-25.55,17.29-14.16.07-25.68-7.82-25.72-17.61l0-6.8c0,9.79,11.56,17.67,25.73,17.61,13.89-.07,25.17-7.76,25.55-17.3l0,5.71C288.75,234.59,288.75,234.78,288.75,235Z"/><path class="cls-10" d="M288.75,217.66c0,.19,0,.37,0,.55-.38,9.54-11.66,17.23-25.55,17.3-14.16.06-25.68-7.82-25.72-17.62l0-6.8c0,9.79,11.56,17.67,25.73,17.61,13.89-.06,25.17-7.76,25.55-17.3l0,5.71C288.75,217.29,288.75,217.48,288.75,217.66Z"/><path class="cls-10" d="M288.75,201.83c0,.18,0,.37,0,.55-.38,9.54-11.66,17.23-25.55,17.29-14.16.07-25.68-7.82-25.72-17.61l0-6.8c0,9.79,11.56,17.67,25.73,17.61,13.89-.07,25.17-7.76,25.55-17.3l0,5.71C288.75,201.46,288.75,201.64,288.75,201.83Z"/><path class="cls-9" d="M260.07,243.72c.08,18.92-22,34.36-49.4,34.48S161,263.09,161,244.17l-.61-134.42,99.12-.45L260,242.66C260.06,243,260.07,243.36,260.07,243.72Z"/><path class="cls-3" d="M259.46,109.3s-15,20.17-49.49,20.33-49.63-19.88-49.63-19.88S164.54,38.29,209.4,0C254.61,37.88,259.46,109.3,259.46,109.3Z"/><path class="cls-5" d="M259.46,109.3s-15,20.17-49.49,20.33-49.63-19.88-49.63-19.88c13.5,11.49,56.21,22.37,67.06-9.4S209.4,0,209.4,0C254.61,37.88,259.46,109.3,259.46,109.3Z"/><path class="cls-8" d="M260.17,266c.09,18.93-22,34.37-49.4,34.49s-49.64-15.11-49.72-34l-.1-22.29c.08,18.92,22.34,34.16,49.72,34,26.85-.13,48.65-15,49.38-33.43l.09,20.17C260.16,265.3,260.17,265.66,260.17,266Z"/><path class="cls-7" d="M260.13,256.87c0,.36,0,.72,0,1.06-.73,18.44-22.53,33.31-49.38,33.43-27.38.12-49.64-15.11-49.72-34L161,244.17c.08,18.92,22.34,34.16,49.72,34,26.85-.13,48.65-15,49.38-33.43l.05,11C260.12,256.16,260.13,256.51,260.13,256.87Z"/><path class="cls-10" d="M260,229.45c0,.36,0,.71,0,1.06-.73,18.44-22.53,33.31-49.38,33.43-27.38.12-49.63-15.12-49.72-34l-.06-13.15c.09,18.92,22.34,34.16,49.72,34,26.85-.12,48.65-15,49.38-33.42l.05,11C260,228.74,260,229.09,260,229.45Z"/><path class="cls-10" d="M259.87,200.2c0,.35,0,.71,0,1.06-.73,18.43-22.53,33.3-49.38,33.42-27.38.13-49.64-15.11-49.72-34l-.06-13.16c.08,18.93,22.34,34.16,49.72,34,26.85-.12,48.65-15,49.38-33.43l0,11C259.86,199.48,259.87,199.84,259.87,200.2Z"/><path class="cls-9" d="M180.93,265.94c0,9.79-11.4,17.78-25.56,17.85s-25.69-7.82-25.73-17.62l-.32-69.55,51.29-.23.3,69C180.92,265.57,180.93,265.76,180.93,265.94Z"/><path class="cls-3" d="M180.61,196.39s-7.75,10.44-25.6,10.52-25.69-10.29-25.69-10.29,2.18-37,25.39-56.78C178.1,159.44,180.61,196.39,180.61,196.39Z"/><path class="cls-5" d="M180.61,196.39s-7.75,10.44-25.6,10.52-25.69-10.29-25.69-10.29c7,5.95,29.09,11.58,34.71-4.86s-9.32-51.92-9.32-51.92C178.1,159.44,180.61,196.39,180.61,196.39Z"/><path class="cls-8" d="M181,277.48c0,9.79-11.4,17.78-25.56,17.84s-25.68-7.82-25.73-17.61l-.05-11.54c0,9.8,11.56,17.68,25.73,17.62,13.89-.07,25.17-7.76,25.55-17.3l0,10.44C181,277.11,181,277.29,181,277.48Z"/><path class="cls-7" d="M181,272.75c0,.18,0,.37,0,.55-.38,9.54-11.66,17.23-25.55,17.29-14.17.07-25.68-7.82-25.73-17.61l0-6.81c0,9.8,11.56,17.68,25.73,17.62,13.89-.07,25.17-7.76,25.55-17.3l0,5.71C181,272.38,181,272.56,181,272.75Z"/><path class="cls-10" d="M181,255.91c0,.19,0,.37,0,.55-.38,9.54-11.66,17.23-25.55,17.29-14.17.07-25.68-7.82-25.73-17.61l0-6.8c0,9.79,11.56,17.67,25.73,17.61,13.89-.06,25.17-7.76,25.55-17.3l0,5.71C181,255.54,181,255.73,181,255.91Z"/><path class="cls-10" d="M181,240.93c0,.19,0,.37,0,.55-.38,9.54-11.66,17.23-25.55,17.3-14.17.06-25.68-7.82-25.73-17.62l0-6.8c0,9.79,11.56,17.67,25.73,17.61,13.89-.06,25.17-7.76,25.55-17.29l0,5.7C181,240.56,181,240.75,181,240.93Z"/><ellipse class="cls-8" cx="233.45" cy="166.55" rx="21.69" ry="28.17"/><ellipse class="cls-7" cx="235.6" cy="166.55" rx="21.69" ry="28.17"/><path class="cls-8" d="M254.57,166.77c0,12.93-8.06,23.4-18,23.4-.28,0-.56,0-.83,0a.17.17,0,0,1-.1,0c-9.51-.63-17.08-10.85-17.08-23.37s7.57-22.74,17.08-23.36h.1a7.58,7.58,0,0,1,.83,0C246.51,143.38,254.57,153.85,254.57,166.77Z"/><path class="cls-2" d="M252.81,166.77c0,12.52-7.57,22.74-17.08,23.37a.17.17,0,0,1-.1,0c-.36,0-.71-.06-1.06-.12-9-1.28-16-11.2-16-23.25s7-22,16-23.24a9.29,9.29,0,0,1,1.06-.12h.1C245.24,144,252.81,154.25,252.81,166.77Z"/><path class="cls-11" d="M250.58,166.77c0,12-7,22-16,23.25-9-1.28-16-11.2-16-23.25s7-22,16-23.24C243.57,144.81,250.58,154.73,250.58,166.77Z"/><path class="cls-7" d="M115.59,275.38l-1.83-.62s1.42-21.95,11.65-38.7c9.49-15.55,16.79-19.44,16.79-19.44l2.06,1.14S122.55,237.63,115.59,275.38Z"/><path class="cls-8" d="M144.26,217.76s-23.75,16-28.67,57.62c9.91-11,19.64-19.82,28.67-20.71Z"/><path class="cls-6" d="M232.73,322a2.06,2.06,0,0,0,.43,0,2.22,2.22,0,0,0,2-2.47l-19.9-168.72a2.23,2.23,0,1,0-4.43.53l19.9,168.71A2.23,2.23,0,0,0,232.73,322Z"/><path class="cls-6" d="M262.62,306.25a3,3,0,0,0,.42,0,2.23,2.23,0,0,0,1.95-2.48L245.28,136.69a2.23,2.23,0,0,0-4.43.53l19.72,167.06A2.23,2.23,0,0,0,262.62,306.25Z"/><path class="cls-6" d="M215.44,163.32a2.18,2.18,0,0,0,1.13-.22l28.25-13.68a2.23,2.23,0,0,0-1.95-4l-28.25,13.68a2.23,2.23,0,0,0,.82,4.23Z"/><path class="cls-6" d="M218.46,187.81a2.14,2.14,0,0,0,1.13-.22l28.56-13.82a2.23,2.23,0,0,0-2-4l-28.55,13.82a2.23,2.23,0,0,0,.81,4.23Z"/><path class="cls-6" d="M221.49,212.3a2.24,2.24,0,0,0,1.13-.21L251,198.32a2.23,2.23,0,1,0-1.94-4l-28.42,13.76a2.23,2.23,0,0,0,.81,4.23Z"/><path class="cls-6" d="M224.52,236.8a2.29,2.29,0,0,0,1.13-.22l28.22-13.66a2.23,2.23,0,0,0-2-4L223.7,232.56a2.24,2.24,0,0,0,.82,4.24Z"/><path class="cls-6" d="M227.54,261.29a2.14,2.14,0,0,0,1.13-.22l28-13.56a2.23,2.23,0,1,0-1.94-4l-28,13.56a2.23,2.23,0,0,0,.81,4.23Z"/><path class="cls-6" d="M230.57,285.78a2.14,2.14,0,0,0,1.13-.22l28-13.57a2.23,2.23,0,1,0-1.95-4l-28,13.57a2.23,2.23,0,0,0,.81,4.23Z"/><path class="cls-6" d="M233.6,310.27a2.27,2.27,0,0,0,1.13-.21l27.9-13.52a2.23,2.23,0,1,0-1.94-4L232.78,306a2.23,2.23,0,0,0,.82,4.23Z"/><path class="cls-2" d="M352.53,322.22C341.32,328.7,330,335,318.77,341.45c5.52,3.23,14.63,5.34,25,5.34,16.84,0,30.5-5.62,30.5-12.55C374.23,328.57,365.08,323.78,352.53,322.22Z"/><path class="cls-6" d="M328.77,329.44a1.93,1.93,0,0,0-1.35,1.52,14.8,14.8,0,0,0-.22,2.73v4.08a4.9,4.9,0,0,0,3.13,1.57L331,339s5.3,3.82,7.79,4.15c3.25.41,6.63-.95,4-4.15-2.46-3-6.17-4.31-7.2-6.7a2.68,2.68,0,0,0-.46-.78C333.39,329.59,331.33,328.7,328.77,329.44Z"/><path class="cls-12" d="M329.28,324.25l-.49,6.59a5.13,5.13,0,0,0,4.87.8l1.07-7.17S331.17,323.36,329.28,324.25Z"/><path class="cls-11" d="M319.77,266.07l17.76,14a9.12,9.12,0,0,1,2.9,7.15c-1.27,11-2.41,25.93-3.76,32.44l0,.12c-.11.5-.2,1-.3,1.44-.06.25-.11.48-.15.7-.38,1.75-1.47,7.24-1.47,7.24a11.54,11.54,0,0,1-6.86-.77s.45-13.69.72-20.17c.24-5.93.48-14.65.73-16.3-9.76-6.56-18.45-12.65-21.09-16.1C312.31,270.23,319.77,266.07,319.77,266.07Z"/><path class="cls-6" d="M348.69,319.05a1.93,1.93,0,0,0-1.36,1.52,15.74,15.74,0,0,0-.22,2.73v4.09a5,5,0,0,0,3.14,1.57l.65-.38s5.29,3.82,7.79,4.14c3.25.42,6.63-1,4-4.14-2.46-3-6.17-4.32-7.2-6.71a2.86,2.86,0,0,0-.46-.77C353.31,319.21,351.25,318.31,348.69,319.05Z"/><path class="cls-12" d="M349.19,313.86l-.48,6.6a5.13,5.13,0,0,0,4.87.8l1.06-7.18S351.09,313,349.19,313.86Z"/><path class="cls-11" d="M338.93,250.19l18.52,19.51a9.12,9.12,0,0,1,2.9,7.15c-1.27,11-2.42,25.94-3.76,32.45l0,.11c-.11.5-.21,1-.3,1.45-.06.24-.11.47-.16.69-.37,1.75-1.46,7.24-1.46,7.24a11.49,11.49,0,0,1-6.87-.77s.46-13.69.73-20.16c.24-5.94.9-15.42,1.15-17.07-10.31-7.73-15.32-13.83-19.29-17.24C334.45,257.93,338.93,250.19,338.93,250.19Z"/><path class="cls-11" d="M307.23,267.9v5.69c0,2.22,2.82,4.25,4.74,3.14l25.51-15.13a4.61,4.61,0,0,0,1.86-3.21V252.7c0-2.22-1.74-6.92-3.66-5.81l-28,13.62C306.75,261,307.23,266.87,307.23,267.9Z"/><path class="cls-8" d="M333.36,197.53s7.09,1.87,8.6,13.83c2.49,19.88,7.24,41.4,8.59,41.44,0,0-1.37,0-5.17,1.7,0,0-6-11.35-8-18.48C332.89,219.53,333.66,206.61,333.36,197.53Z"/><path class="cls-7" d="M338.93,208.24v41.95c-.47.73-2,1.4-2.81,1.83-17.89,9.31-21.07,10.31-26.19,11.42-2.29.5-3.3-.73-3.07-4.12.93-13.52-2-47.82.09-50.84,1.64-2.39,5.95-4.64,12.19-8.22s11.61-3.32,14.61-2.61S338.58,200.32,338.93,208.24Z"/><path class="cls-12" d="M328.58,194.76l-2,8.94c-3.92,1.75-6.62.75-8.57-1.89l2-8.94A7.59,7.59,0,0,1,328.58,194.76Z"/><path class="cls-13" d="M327.78,198.39,327,202c-5.81.21-7.27-7.81-7.27-7.81Z"/><path class="cls-12" d="M320,177.52l-1.75,7.93a11.67,11.67,0,0,0,4.5,12,21.69,21.69,0,0,0,7.43,3.52,5.5,5.5,0,0,0,6.64-4.17l3.62-16.44S328.46,171.19,320,177.52Z"/><path class="cls-6" d="M344.8,176.81c-.29,4.05-4.77,4-4.77,4-4.09-2.12-10.66-1.66-10.66-1.66-.27,1.23-1.26,1.92-2.46,2.82a2.16,2.16,0,0,0-.48.55v0c-.13.47-2.13,7.94-1.38,10.7a3.73,3.73,0,0,0,.36.83c1.31-2,4.42-3.12,6.35-3.47a6.94,6.94,0,0,1,4.53,1.22c1.23-.22,1.69.36,1.69.36.7,1.47-.69,3.16-.69,3.16a1.72,1.72,0,0,0-1.41-1.1c-.93-.13-1.78-.33-3.75-.74-1.35-.27-3.62,1.42-4.92,2.52,1.94,1.48,4.7,2.43,6.54,2.1,2.83-.5,3.24-2,3.24-2s.22,6.54-6.05,6.82-10.07-6.16-10.12-8.71,2.73-9.13,2.73-9.13h0l.42-1.4-1.86,1.45c-2.64,2.31-3.1,7.78-3.1,7.78-3.55-2.54-1.62-11.94-1-15.61s3.48-3.88,3.48-3.88c3.89-5.39,14.45-1.47,16.76-1.66C340.69,171.56,345.08,172.76,344.8,176.81Z"/><path class="cls-12" d="M324,183.68s-3.62-3.19-5.12-.34c-1.17,2.21-.4,7.24,2.71,7.14Z"/><path class="cls-14" d="M328.37,279.18,312.29,270a1.25,1.25,0,0,1,0-2.17l18.89-10.6a1.23,1.23,0,0,1,1.19,0l16.14,8.53a1.24,1.24,0,0,1,.05,2.17l-18.95,11.25A1.24,1.24,0,0,1,328.37,279.18Z"/><path class="cls-15" d="M328.37,277.28l-16.08-9.18a1.24,1.24,0,0,1,0-2.16l18.89-10.6a1.23,1.23,0,0,1,1.19,0l16.14,8.53a1.25,1.25,0,0,1,.05,2.18l-18.95,11.24A1.24,1.24,0,0,1,328.37,277.28Z"/><path class="cls-10" d="M311.68,268.86v-1.78l16.62,9.16.92,3.45-16.85-9.64A1.36,1.36,0,0,1,311.68,268.86Z"/><path class="cls-10" d="M328.3,257.6v20.51a1.82,1.82,0,0,0,1.84,1.82h3.54v-1.77l25.82-14.9a1.84,1.84,0,0,0,.91-1.58V242.27h1.67v-2.92h-3.52a1.69,1.69,0,0,0-.88.24L329.21,256A1.81,1.81,0,0,0,328.3,257.6Z"/><path class="cls-9" d="M361.16,239.59,332.7,256a1.82,1.82,0,0,0-.91,1.58v20.51a1.82,1.82,0,0,0,2.73,1.58L363,263.25a1.81,1.81,0,0,0,.91-1.57V241.17A1.82,1.82,0,0,0,361.16,239.59Z"/><path class="cls-15" d="M347.07,260.47c0,1.6.93,2.91,2.1,2.91s2.12-1.29,2.13-2.89-.94-2.92-2.1-2.92S347.07,258.86,347.07,260.47Z"/><path class="cls-8" d="M307,208.48s-8.23,22.2-4.9,33.81c2.83,9.85,16.95,19.34,24.08,21.26a34.4,34.4,0,0,0,2.17-4.7s-10.74-4.89-17-20.14c-3.24-7.83,2.82-20.36,2.82-20.36S315.12,209.32,307,208.48Z"/><polygon class="cls-16" points="326.13 263.55 328.3 264.61 328.3 258.85 326.13 263.55"/><path class="cls-17" d="M362.07,239.35h-3.51a1.67,1.67,0,0,0-.88.24L329.21,256a1.83,1.83,0,0,0-.91,1.58v18.63l-18.73-21.45c.41-26.91,17.29-41,44.25-47.32Z"/><ellipse class="cls-18" cx="100.19" cy="226.14" rx="27.19" ry="9.52"/><path class="cls-9" d="M84.09,218a1.93,1.93,0,0,0-1.35,1.52,15.74,15.74,0,0,0-.22,2.73v4.09a5,5,0,0,0,3.14,1.57l.65-.38s5.29,3.82,7.79,4.14c3.25.42,6.63-.95,4-4.14-2.46-3-6.17-4.32-7.2-6.7a2.77,2.77,0,0,0-.46-.78C88.72,218.15,86.66,217.25,84.09,218Z"/><path class="cls-16" d="M84.6,212.8l-.48,6.6a5.13,5.13,0,0,0,4.87.8L90.05,213S86.5,211.91,84.6,212.8Z"/><path class="cls-5" d="M83.18,217a11.67,11.67,0,0,0,6.88.76s1.08-5.49,1.45-7.24l.15-.69c.1-.47.2-1,.31-1.45a.36.36,0,0,1,0-.11c1.54-7.42,3.77-19.29,5.08-28.65V147.8a16.05,16.05,0,0,0-11.2,1.62V179.2c-.25,1.65-1.73,11.66-2,17.59C83.64,203.27,83.18,217,83.18,217Z"/><path class="cls-9" d="M104.75,213.88a1.93,1.93,0,0,0-1.35,1.52,15.74,15.74,0,0,0-.22,2.73v4.09a5,5,0,0,0,3.14,1.57l.65-.38s5.29,3.82,7.79,4.14c3.25.42,6.63-1,4-4.14-2.46-3-6.17-4.31-7.2-6.7a2.77,2.77,0,0,0-.46-.78C109.38,214,107.32,213.14,104.75,213.88Z"/><path class="cls-16" d="M105.26,208.69l-.48,6.6a5.13,5.13,0,0,0,4.87.8l1.06-7.17S107.16,207.8,105.26,208.69Z"/><path class="cls-5" d="M103.92,213.08a8.71,8.71,0,0,0,6.79.54s1.23-7.15,1.61-8.9q.06-.33.15-.69c.09-.45.19-.93.3-1.45l0-.11c0-.26.1-.52.16-.79,1.52-7.45,3.65-18.83,4.91-27.86V142a16,16,0,0,0-11.19,1.62v29.78c-.25,1.65-1.73,11.66-2,17.59C104.44,197.5,103.92,213.08,103.92,213.08Z"/><path class="cls-5" d="M85.79,151.9v5.69c0,2.23,2.81,4.25,4.74,3.14L116,145.6a4.64,4.64,0,0,0,1.86-3.21V136.7c0-2.22-1.74-6.92-3.67-5.81l-28,13.62C85.31,145,85.79,150.87,85.79,151.9Z"/><path class="cls-8" d="M111.92,81.54s8.85,2.72,8.11,14.76,4.24,16.16,16.94,15.6a8.43,8.43,0,0,0-.52,5.5s-8,1.72-14.93-1C110.17,111.83,112.22,90.61,111.92,81.54Z"/><path class="cls-7" d="M117.49,92.24v42c-.47.73-2,1.4-2.81,1.83-17.89,9.31-21.07,10.31-26.2,11.42-2.28.5-3.3-.73-3.06-4.12.93-13.52-2-47.82.09-50.83,1.64-2.39,5.95-4.65,12.19-8.23s11.6-3.31,14.61-2.61S117.13,84.32,117.49,92.24Z"/><path class="cls-16" d="M107.67,77.37l-1.3,9.07c-3.77,2-6.54,1.24-8.68-1.25L99,76.13A7.59,7.59,0,0,1,107.67,77.37Z"/><path class="cls-19" d="M107.14,81.05l-.52,3.67c-4.56-1-7.83-7.24-7.83-7.24Z"/><path class="cls-16" d="M97.83,60.83l-1.15,8a11.66,11.66,0,0,0,5.38,11.63,21.82,21.82,0,0,0,7.67,3A5.49,5.49,0,0,0,116,78.8l2.38-16.66S105.79,53.88,97.83,60.83Z"/><path class="cls-6" d="M118.05,62.58s4.47-.27,4.45-4.32-4.49-4.94-7-4.55c-2.28.35-13.11-2.75-16.58,2.91,0,0-2.87.41-3.18,4.12S94.26,74,98,76.23c0,0,0-5.48,2.5-8l1.74-1.59-.47,2.07h0A2.06,2.06,0,0,0,104,67.1a4.47,4.47,0,0,1,1-2.38c1.12-1,2.06-1.76,2.24-3C107.29,61.71,113.8,60.77,118.05,62.58Z"/><path class="cls-16" d="M102.24,66.66s-3.84-2.9-5.13,0c-1,2.3.44,8,3.57,6.83Z"/><path class="cls-20" d="M143.24,98.35l-6.5-33.77c-27,6.29-43.84,20.4-44.24,47.31l17.72,21.93Z"/><path class="cls-10" d="M144.81,100a2.56,2.56,0,0,1-.07,1.7l-11.22,28.51a2.6,2.6,0,0,1-2,1.6l-11.84,2-5.21.89-.25.19.15,1.1-2.78-1.09-.24-.09a2.58,2.58,0,0,1-1.38-3.31l11.3-29a2.57,2.57,0,0,1,2-1.61L142,98.22a2.63,2.63,0,0,1,1.26.13l.15.06,2.77,1.1Z"/><path class="cls-9" d="M147.51,102.81l-11.22,28.51a2.58,2.58,0,0,1-2,1.6l-18.72,3.16a2.58,2.58,0,0,1-2.83-3.48l11.3-29a2.57,2.57,0,0,1,2-1.61l18.64-2.7A2.57,2.57,0,0,1,147.51,102.81Z"/><path class="cls-10" d="M129.05,118.1c-.83,2.09-.44,4.2.85,4.71s3-.77,3.84-2.86.44-4.2-.86-4.71S129.87,116,129.05,118.1Z"/><path class="cls-8" d="M85.51,92.48s-8,16.13-5.48,30.93,26,7.65,32.26,4.76l-2.07-5.47s-15.63,2.12-18.61.12c-2.46-1.65-1.1-10,.55-15.47a15.31,15.31,0,0,0,0-9.21C91.2,95.1,89.26,92.14,85.51,92.48Z"/><path class="cls-16" d="M110.22,122.7a10.2,10.2,0,0,1,3.16-3.32c2-1.22,3.29-.89,3.35-.5s-2.12,1.45-2.12,2.12,6-1.9,7.08-1.51,1.22,6.08-1.12,7.36-8.28,1.32-8.28,1.32Z"/><path class="cls-16" d="M144.47,113.08a.72.72,0,0,0-.55-1.19l-.52,1.33A1.1,1.1,0,0,0,144.47,113.08Z"/><path class="cls-16" d="M139.78,119.82l.2.09v0a4.86,4.86,0,0,0,1.57.53c1.59.21,3.7-4.54,3.11-5.49a2.28,2.28,0,0,0-1-.75l-.27-.11a4.29,4.29,0,0,0-.61-.21c-.46-.11-1-.14-1.22.17C141.05,114.72,138.41,119,139.78,119.82Z"/><ellipse class="cls-2" cx="94.87" cy="400.58" rx="30.5" ry="12.55"/><path class="cls-6" d="M102.24,235.92s3.64,8.45,2.89,14.46a42.66,42.66,0,0,0,2.61,19.45c2.33,6,3.11,9.7,1.38,12.52s-21-3.69-25.39-5S81.32,260.89,82,255.69s-2.3-19.29-2.3-19.29Z"/><path class="cls-9" d="M107.34,394.4a2,2,0,0,1,1.36,1.52,16.56,16.56,0,0,1,.23,2.72c0,2.68,0,4.09,0,4.09a5,5,0,0,1-3.13,1.59l-.66-.38s-5.27,3.84-7.76,4.18c-3.25.43-6.64-.92-4.05-4.13,2.44-3,6.15-4.34,7.17-6.73a2.74,2.74,0,0,1,.45-.78C102.72,394.58,104.77,393.67,107.34,394.4Z"/><path class="cls-12" d="M106.81,389.22l.51,6.59a5.12,5.12,0,0,1-4.86.82l-1.1-7.17S104.91,388.33,106.81,389.22Z"/><path class="cls-5" d="M108.25,393.37a11.62,11.62,0,0,1-6.88.8s-1.1-5.49-1.48-7.23c0-.23-.1-.46-.16-.7-.1-.46-.2-.94-.31-1.44a.6.6,0,0,1,0-.12c-1.57-7.4-3.86-19.27-5.21-28.62l-.14-31.79a16,16,0,0,1,11.2,1.57l-.91,29.74c.26,1.64,2,12.05,2.27,18C106.9,380,108.25,393.37,108.25,393.37Z"/><path class="cls-9" d="M91.05,390.39a1.94,1.94,0,0,1,1.36,1.51,14.63,14.63,0,0,1,.23,2.73c0,2.68,0,4.09,0,4.09a4.94,4.94,0,0,1-3.13,1.58l-.65-.38s-5.28,3.85-7.77,4.18c-3.25.44-6.64-.91-4-4.12,2.44-3,6.15-4.34,7.17-6.74a2.68,2.68,0,0,1,.46-.78C86.43,390.57,88.48,389.66,91.05,390.39Z"/><path class="cls-12" d="M90.52,385.2l.51,6.6a5.14,5.14,0,0,1-4.86.82l-1.1-7.17S88.62,384.32,90.52,385.2Z"/><path class="cls-5" d="M91.88,389.58a8.72,8.72,0,0,1-6.79.58s-1.26-7.15-1.64-8.9c0-.22-.1-.45-.16-.69-.09-.45-.2-.93-.31-1.45a.52.52,0,0,1,0-.11c-.06-.26-.11-.52-.17-.79-1.56-7.44-3.73-18.81-5-27.83l-.14-31.8a13.64,13.64,0,0,1,10.44,1.47l.89,29.88c.26,1.65,1.78,11.66,2,17.59C91.29,374,91.88,389.58,91.88,389.58Z"/><path class="cls-5" d="M105.51,325.47l-.5,7.95c0,2.23-7.46-.67-9.39-1.78l-16.17-9.48a4.67,4.67,0,0,1-1.87-3.2l0-5.69c0-2.23,1.7-6.93,3.63-5.83l19,9.83C101.05,317.78,105.84,318.55,105.51,325.47Z"/><path class="cls-12" d="M58.37,288.56s-2.95-1.35-4.91.34-.5,6.13.63,6.24,4.82-1.09,4.82-1.09S60.49,290.53,58.37,288.56Z"/><path class="cls-21" d="M81.54,260.13s-5.06.18-5.06,12.88c0,12.07-5.4,16-18.11,15.55a8.31,8.31,0,0,1,.54,5.49s8,1.68,14.94-1.1C85.17,288.36,81.29,269.2,81.54,260.13Z"/><path class="cls-9" d="M54.9,288.5V296c0,1.25-2.52,2.27-5.63,2.27s-5.63-1-5.63-2.27V288.5Z"/><path class="cls-9" d="M55.13,295.53a2.74,2.74,0,1,1,2.78-2.73A2.75,2.75,0,0,1,55.13,295.53Zm0-4.36a1.63,1.63,0,1,0,1.68,1.63A1.65,1.65,0,0,0,55.13,291.17Z"/><path class="cls-22" d="M54.9,288.5c0,1.26-2.52,2.27-5.63,2.27s-5.63-1-5.63-2.27,2.52-2.27,5.63-2.27S54.9,287.25,54.9,288.5Z"/><path class="cls-6" d="M54.2,288.5a.45.45,0,0,1-.11.26c-.44.56-2.19,1.3-4.82,1.3s-4.38-.74-4.82-1.3a.45.45,0,0,1-.11-.26c0-.55,1.88-1.56,4.93-1.56S54.2,288,54.2,288.5Z"/><path class="cls-5" d="M54.09,288.76c-.44.56-2.19,1.3-4.82,1.3s-4.38-.74-4.82-1.3c.44-.56,2.19-1.31,4.82-1.31S53.65,288.2,54.09,288.76Z"/><path class="cls-12" d="M57,290.78s-1.7.46-1.34,1.57,1.14.45,1.14.45,2,0,2.34-.78-.78-3.46-.78-3.46Z"/><path class="cls-11" d="M77.76,268.81,78,310.75a8.36,8.36,0,0,0,2.82,1.82c10.26,5.15,15.7,8.85,20.84,9.94,2.28.49,4.16.16,3.92-3.23-1-13.52,1.68-50-.69-53.55-1.62-2.4-3.69-3.34-7.32-5-6.55-3-11.61-1.69-15.09-.88S78.22,263.21,77.76,268.81Z"/><path class="cls-12" d="M87.74,253l0,9c3.4,2.49,6.19,2.09,8.61,0l0-9A7.45,7.45,0,0,0,87.74,253Z"/><path class="cls-13" d="M87.75,256.66l0,3.65c4.57-.39,8.59-6,8.59-6Z"/><path class="cls-12" d="M100.92,239.55l-1.06,7.9A11.47,11.47,0,0,1,91.67,257c-2.38.66-5.24,1.53-8,.74-1.18-.33-1.93-1.88-2.45-4.5a25.93,25.93,0,0,1-.45-6l.38-11.93S95.25,230.86,100.92,239.55Z"/><path class="cls-6" d="M96.76,242.8c2.23-.4,2.34,5.59,0,7s-2.53,11.66-.37,12.19c8.74,2.12,9.12-15.43,6.5-24.29-2-6.76-7.13-7.68-9.43-7.74-4.41-1.51-10.11-.84-12.71,1.81a.45.45,0,0,1-.1.09,4.68,4.68,0,0,0-1.16,2c0,.15,0,.28-.07.41-.88,3.8,1.12,8.94,1.36,7.9a3.71,3.71,0,0,1,3.42-3.26c1.2,1.76,3.75,4.84,7,4.7a2.93,2.93,0,0,0,1.7-.52s-.25,3.81.49,5.18C93.42,248.3,93.3,243.43,96.76,242.8Z"/><path class="cls-6" d="M79.49,233.89c-.13.5.08-.43,0,0Z"/><path class="cls-21" d="M103.44,264.09s11.14,8.53,17.81,7.62c0,0,6.1-2.83,10.33-5.27l8.43-4.89,1.61,4.07S130,277.2,123.61,279s-17.76-2.6-17.76-2.6S99.48,271.27,103.44,264.09Z"/><path class="cls-12" d="M140,261.55s-.55-1.06-.17-1.69a5.75,5.75,0,0,1,1.78-1.67c.33-.13,1.78,0,1.67.63,0,0,3.53-2.56,4.42-1.82.63.52-2.27,2.67-2.27,2.67a4.55,4.55,0,0,1,1.6,3.12c-.07,1.71-2.19,1.64-2.19,1.64s-2.23,1.52-3.23,1.19S140,261.55,140,261.55Z"/><path class="cls-9" d="M53.22,157.62c-4,.88-5.66,2.5-6.54,6.54a1,1,0,0,1-1.86,0c-.88-4-2.5-5.66-6.54-6.54a1,1,0,0,1,0-1.86c4-.88,5.66-2.5,6.54-6.54a1,1,0,0,1,1.86,0c.88,4,2.5,5.66,6.54,6.54A1,1,0,0,1,53.22,157.62Z"/><path class="cls-9" d="M60.62,174.37a3.77,3.77,0,0,0-3.41,3.42.5.5,0,0,1-1,0,3.77,3.77,0,0,0-3.41-3.42.49.49,0,0,1,0-1A3.77,3.77,0,0,0,56.24,170a.5.5,0,0,1,1,0,3.77,3.77,0,0,0,3.41,3.42A.49.49,0,0,1,60.62,174.37Z"/><path class="cls-9" d="M322.28,117.64c-4,.88-5.66,2.5-6.54,6.55a1,1,0,0,1-1.86,0c-.88-4-2.5-5.67-6.54-6.55a1,1,0,0,1,0-1.86c4-.87,5.66-2.5,6.54-6.54a1,1,0,0,1,1.86,0c.88,4,2.5,5.67,6.54,6.54A1,1,0,0,1,322.28,117.64Z"/><path class="cls-9" d="M309.45,100a3.77,3.77,0,0,0-3.42,3.41.5.5,0,0,1-1,0,3.75,3.75,0,0,0-3.41-3.41.5.5,0,0,1,0-1,3.76,3.76,0,0,0,3.41-3.42.5.5,0,0,1,1,0A3.78,3.78,0,0,0,309.45,99,.5.5,0,0,1,309.45,100Z"/></g></g></g></svg>