<svg width="806" height="872" viewBox="0 0 806 872" fill="none" xmlns="http://www.w3.org/2000/svg">
<path d="M733.743 542.417L431.552 18.9432C416.923 -6.31439 392.991 -6.31439 378.386 18.9432L76.1704 542.417C61.565 567.722 73.5192 588.458 102.777 588.458L120.318 588.316C276.858 588.316 388.493 559.413 388.493 380.645H420.923C420.923 559.413 532.559 588.316 689.099 588.316L707.16 588.458C736.395 588.458 748.349 567.722 733.743 542.417ZM218.46 456.299L214.886 462.88L211.288 456.299L204.707 452.701L211.288 449.103L214.886 442.523L218.46 449.103L225.041 452.701L218.46 456.299ZM237.658 403.015L224.023 398.991L210.365 402.991L214.341 389.333L210.365 375.674L223.999 379.674L237.658 375.674L233.681 389.333L237.658 403.015ZM270.798 332L263.697 329.893L256.595 332L258.726 324.898L256.595 317.797L263.697 319.904L270.798 317.797L268.691 324.898L270.798 332ZM289.049 250.688L284.622 242.569L276.503 238.118L284.622 233.668L289.049 225.549L293.523 233.668L301.642 238.118L293.523 242.569L289.049 250.688ZM322.189 403.18L318.496 409.69L314.922 403.133L308.341 399.511L314.922 395.913L318.496 389.333L322.118 395.913L328.675 399.511L322.189 403.18ZM494.992 403.18L491.299 409.69L487.725 403.133L481.12 399.511L487.725 395.913L491.299 389.333L494.921 395.913L501.501 399.511L494.992 403.18ZM451.767 341.634C447.507 349.115 437.778 363.578 437.304 364.051C434.955 366.398 431.771 367.717 428.451 367.72H380.421C378.419 367.709 376.449 367.22 374.675 366.294C372.9 365.367 371.372 364.03 370.219 362.394C365.792 356.121 361.413 349.091 357.128 341.634C342.926 345.256 301.737 348.949 301.737 348.949C301.737 348.949 305.903 286.077 326.616 262.642C321.882 239.681 320.745 215.985 325.503 193.521C334.522 150.912 363.804 118.837 395.595 86.999C396.756 85.8373 398.134 84.9158 399.651 84.2871C401.168 83.6584 402.794 83.3347 404.436 83.3347C406.078 83.3347 407.704 83.6584 409.221 84.2871C410.738 84.9158 412.117 85.8373 413.277 86.999C443.79 117.488 474.374 150.912 483.345 193.521C488.08 215.985 486.991 239.657 482.256 262.666C502.993 286.077 507.159 348.925 507.159 348.925C507.159 348.925 465.899 345.209 451.744 341.563L451.767 341.634ZM525.149 242.592L520.723 250.712L516.273 242.592L508.153 238.142L516.273 233.692L520.723 225.572L525.149 233.692L533.292 238.142L525.149 242.592ZM553.39 332.024L546.288 329.917L539.187 332.024L541.27 324.922L539.187 317.821L546.288 319.927L553.39 317.821L551.307 324.922L553.39 332.024ZM572.208 375.745L585.867 379.746L599.526 375.745L595.525 389.404L599.526 403.062L585.985 398.991L572.327 403.015L576.327 389.333L572.208 375.745ZM598.626 456.37L595.004 462.951L591.406 456.37L584.825 452.772L591.406 449.174L595.004 442.594L598.626 449.174L605.183 452.772L598.626 456.37Z" fill="#0D2A3E"/>
<path d="M426.699 208.316C426.699 204.012 425.423 199.805 423.031 196.227C420.64 192.649 417.241 189.861 413.265 188.215C409.288 186.57 404.913 186.14 400.692 186.981C396.472 187.823 392.596 189.897 389.554 192.942C386.513 195.986 384.443 199.865 383.606 204.086C382.769 208.308 383.203 212.683 384.854 216.657C386.504 220.632 389.296 224.028 392.876 226.415C396.457 228.803 400.665 230.075 404.969 230.07C407.824 230.07 410.652 229.507 413.29 228.414C415.928 227.32 418.325 225.717 420.343 223.697C422.361 221.677 423.961 219.278 425.052 216.639C426.143 214 426.702 211.172 426.699 208.316Z" fill="#0D2A3E"/>
<path d="M94.8473 649.791H45.1133V740.927H58.1327V703.301H81.9581L84.0412 697.442L81.9581 691.453H58.1327V661.248H84.1714L85.8639 666.716L99.1437 663.852L94.8473 649.791Z" fill="black"/>
<path d="M183.621 740.927L175.159 707.988C176.07 706.686 176.851 704.993 177.502 702.519L183.361 679.345L177.242 657.342C175.419 650.833 172.815 649.791 166.956 649.791H127.898V740.796H140.918V711.242H162.53L169.17 740.927H183.621ZM164.613 699.525H140.918V661.248H164.613C165.394 661.769 166.175 663.201 166.566 665.024L170.081 679.345L166.566 695.88C166.175 697.442 165.394 699.004 164.613 699.525Z" fill="black"/>
<path d="M268.212 659.686C266.39 651.223 262.744 649.791 257.276 649.791H230.196C224.728 649.791 221.082 651.223 219.26 659.686L211.448 695.359L218.999 729.99C220.952 738.843 224.728 740.927 230.196 740.927H257.276C262.744 740.927 266.52 738.843 268.473 729.99L276.024 695.359L268.212 659.686ZM257.016 722.83C256.235 726.735 255.063 728.558 254.152 729.209H233.321C232.409 728.558 231.237 726.735 230.456 722.83L224.598 695.359L231.107 666.195C231.758 663.071 232.409 661.639 233.321 661.248H254.152C255.063 661.639 255.714 663.071 256.365 666.195L262.875 695.359L257.016 722.83Z" fill="black"/>
<path d="M388.707 649.791H367.746L349.258 704.603L330.64 649.791H309.679L306.945 662.941V740.927H319.964V660.597H321.136L343.399 725.303H354.987L377.25 660.597H378.421V740.927H391.441V662.941L388.707 649.791Z" fill="black"/>
<path d="M483.703 740.927H496.723V649.791H483.703V740.927Z" fill="black"/>
<path d="M585.794 659.686C583.971 651.223 580.326 649.791 574.857 649.791H532.414V740.927H574.857C580.326 740.927 584.101 738.843 586.054 729.99L593.605 695.359L585.794 659.686ZM574.597 722.83C573.816 726.735 572.644 728.558 571.733 729.209H545.434V661.248H571.733C572.644 661.639 573.295 663.071 573.946 666.195L580.456 695.359L574.597 722.83Z" fill="black"/>
<path d="M662.888 729.209H637.5V700.697H660.023L662.106 694.838L660.023 688.849H637.5V661.248H662.888L664.58 666.716L677.86 663.852L673.564 649.791H624.48V740.927H673.564L677.73 726.996L664.45 724.001L662.888 729.209Z" fill="black"/>
<path d="M759.524 740.927H773.194L750.02 649.791H726.845L703.671 740.927H717.341L723.33 716.06H753.535L759.524 740.927ZM726.064 704.342L736.349 661.508H740.516L750.801 704.342H726.064Z" fill="black"/>
<path d="M41.4537 798.212H1.24986L0 804.357H18.2271V871.12H24.5806V804.357H42.7035L41.4537 798.212Z" fill="black"/>
<path d="M102.129 806.128C100.671 799.566 97.8585 798.316 93.6923 798.212H74.3195C70.1533 798.316 67.3411 799.566 65.8829 806.128L59.6336 834.666L65.6746 862.371C67.2369 869.245 70.1533 871.016 74.3195 871.12H93.6923C97.8585 871.016 100.775 869.245 102.337 862.371L108.378 834.666L102.129 806.128ZM96.2962 859.663C95.6712 862.788 94.7338 864.246 94.0048 864.767H74.007C73.2779 864.246 72.3405 862.788 71.7156 859.663L66.612 834.666L72.2364 808.211C72.7571 805.711 73.2779 804.565 74.007 804.253H94.0048C94.7338 804.565 95.2546 805.711 95.7754 808.211L101.4 834.666L96.2962 859.663Z" fill="black"/>
<path d="M213.421 871.12H219.878L201.964 798.212H188.111L170.197 871.12H176.654L181.549 850.498H208.526L213.421 871.12ZM183.008 844.144L192.486 804.565H197.589L207.067 844.144H183.008Z" fill="black"/>
<path d="M280.525 804.253C278.963 799.045 276.984 798.212 272.297 798.212H244.175V871.016H250.529V844.144H272.297C276.984 844.144 278.963 842.998 280.317 838.52L285.629 821.022L280.525 804.253ZM274.692 834.874C274.276 836.124 273.755 837.374 273.13 837.791H250.529V804.149H273.13C273.755 804.565 274.276 805.711 274.692 807.169L278.859 821.022L274.692 834.874Z" fill="black"/>
<path d="M346.245 804.253C344.682 799.045 342.703 798.212 338.016 798.212H309.894V871.016H316.248V844.144H338.016C342.703 844.144 344.682 842.998 346.036 838.52L351.348 821.022L346.245 804.253ZM340.412 834.874C339.995 836.124 339.474 837.374 338.85 837.791H316.248V804.149H338.85C339.474 804.565 339.995 805.711 340.412 807.169L344.578 821.022L340.412 834.874Z" fill="black"/>
<path d="M427.14 864.975V798.212H420.787V871.12H454.429L455.991 864.975H427.14Z" fill="black"/>
<path d="M520.353 871.12H526.81L508.896 798.212H495.043L477.128 871.12H483.586L488.481 850.498H515.457L520.353 871.12ZM489.939 844.144L499.417 804.565H504.521L513.999 844.144H489.939Z" fill="black"/>
<path d="M587.769 798.212V849.664C586.207 855.914 585.27 859.142 584.436 861.642C583.916 863.309 583.499 864.35 583.082 864.871H561.522C561.106 864.35 560.689 863.309 560.168 861.642C559.335 859.142 558.398 855.914 556.835 849.664V798.212H550.482V850.393C551.94 856.226 553.502 861.226 554.856 865.392C556.419 870.079 557.981 871.12 562.356 871.12H582.249C586.624 871.12 588.186 870.079 589.748 865.392C591.102 861.226 592.665 856.226 594.123 850.393V798.212H587.769Z" fill="black"/>
<path d="M661.05 798.212V862.475L630.845 798.212H624.075L622.512 805.503V871.12H628.866V808.002L658.238 871.12H665.841L667.403 863.829V798.212H661.05Z" fill="black"/>
<path d="M728.047 864.767H706.382C705.653 864.246 704.716 862.788 704.091 859.663L698.987 834.666L704.612 808.211C705.132 805.711 705.653 804.565 706.382 804.253H727.942L730.859 813.523L737.004 812.273L732.733 798.212H707.007C702.633 798.212 699.716 799.357 698.258 806.128L692.009 834.666L698.05 862.371C699.612 869.454 702.633 871.12 707.007 871.12H732.733L737.004 857.059L730.859 855.81L728.047 864.767Z" fill="black"/>
<path d="M799.647 798.212V830.083H770.587V798.212H764.234V871.12H770.587V836.437H799.647V871.12H806V798.212H799.647Z" fill="black"/>
</svg>
