<svg width="174" height="50" viewBox="0 0 174 50" fill="none" xmlns="http://www.w3.org/2000/svg">
<path d="M56.2178 46.088L30.6251 1.60956C29.3862 -0.536521 27.3594 -0.536521 26.1224 1.60956L0.527744 46.088C-0.70919 48.2381 0.303211 50 2.78109 50L4.26661 49.9879C17.5241 49.9879 26.9785 47.5321 26.9785 32.3426H29.725C29.725 47.5321 39.1794 49.9879 52.4369 49.9879L53.9665 50C56.4424 50 57.4548 48.2381 56.2178 46.088ZM12.5783 38.7708L12.2756 39.3299L11.9709 38.7708L11.4136 38.4651L11.9709 38.1593L12.2756 37.6002L12.5783 38.1593L13.1356 38.4651L12.5783 38.7708ZM14.2042 34.2433L13.0494 33.9014L11.8927 34.2413L12.2295 33.0807L11.8927 31.9202L13.0474 32.2601L14.2042 31.9202L13.8674 33.0807L14.2042 34.2433ZM17.0108 28.2093L16.4094 28.0303L15.808 28.2093L15.9884 27.6059L15.808 27.0025L16.4094 27.1815L17.0108 27.0025L16.8324 27.6059L17.0108 28.2093ZM18.5565 21.3004L18.1816 20.6105L17.494 20.2324L18.1816 19.8543L18.5565 19.1644L18.9354 19.8543L19.623 20.2324L18.9354 20.6105L18.5565 21.3004ZM21.3632 34.2574L21.0504 34.8105L20.7477 34.2533L20.1904 33.9456L20.7477 33.6399L21.0504 33.0807L21.3571 33.6399L21.9125 33.9456L21.3632 34.2574ZM35.9979 34.2574L35.6851 34.8105L35.3824 34.2533L34.8231 33.9456L35.3824 33.6399L35.6851 33.0807L35.9918 33.6399L36.5492 33.9456L35.9979 34.2574ZM32.3372 29.0279C31.9763 29.6635 31.1524 30.8924 31.1123 30.9327C30.9133 31.132 30.6437 31.2441 30.3625 31.2444H26.2949C26.1253 31.2435 25.9585 31.2019 25.8082 31.1232C25.6579 31.0445 25.5285 30.9309 25.4308 30.7919C25.0559 30.2589 24.685 29.6615 24.3222 29.0279C23.1193 29.3357 19.631 29.6494 19.631 29.6494C19.631 29.6494 19.9839 24.3074 21.738 22.3161C21.3371 20.3652 21.2409 18.3518 21.6438 16.4431C22.4076 12.8227 24.8875 10.0973 27.5799 7.39212C27.6782 7.29341 27.7949 7.21511 27.9234 7.16169C28.0519 7.10827 28.1896 7.08077 28.3287 7.08077C28.4677 7.08077 28.6055 7.10827 28.7339 7.16169C28.8624 7.21511 28.9791 7.29341 29.0774 7.39212C31.6616 9.9827 34.2517 12.8227 35.0115 16.4431C35.4125 18.3518 35.3203 20.3631 34.9193 22.3182C36.6755 24.3074 37.0283 29.6474 37.0283 29.6474C37.0283 29.6474 33.534 29.3316 32.3352 29.0219L32.3372 29.0279ZM38.5519 20.6125L38.177 21.3024L37.8001 20.6125L37.1125 20.2344L37.8001 19.8563L38.177 19.1664L38.5519 19.8563L39.2416 20.2344L38.5519 20.6125ZM40.9436 28.2113L40.3422 28.0323L39.7407 28.2113L39.9172 27.6079L39.7407 27.0045L40.3422 27.1835L40.9436 27.0045L40.7672 27.6079L40.9436 28.2113ZM42.5374 31.9262L43.6941 32.2662L44.8509 31.9262L44.5121 33.0868L44.8509 34.2473L43.7041 33.9014L42.5474 34.2433L42.8862 33.0807L42.5374 31.9262ZM44.7747 38.7768L44.4679 39.336L44.1632 38.7768L43.6059 38.4711L44.1632 38.1654L44.4679 37.6062L44.7747 38.1654L45.33 38.4711L44.7747 38.7768Z" fill="black"/>
<path d="M30.2144 17.7004C30.2144 17.3348 30.1063 16.9773 29.9038 16.6733C29.7013 16.3693 29.4134 16.1324 29.0766 15.9925C28.7399 15.8527 28.3693 15.8162 28.0119 15.8877C27.6545 15.9592 27.3262 16.1354 27.0686 16.3941C26.811 16.6528 26.6357 16.9824 26.5648 17.3411C26.494 17.6998 26.5308 18.0715 26.6705 18.4092C26.8103 18.7469 27.0467 19.0354 27.35 19.2383C27.6532 19.4412 28.0096 19.5492 28.3741 19.5488C28.6159 19.5488 28.8554 19.501 29.0788 19.4081C29.3022 19.3152 29.5052 19.179 29.6761 19.0073C29.847 18.8357 29.9825 18.6319 30.0749 18.4076C30.1673 18.1834 30.2147 17.9431 30.2144 17.7004Z" fill="black"/>
<path d="M79.2919 11.5513H72.6685V23.7347H74.4024V18.7047H77.5753L77.8528 17.9215L77.5753 17.1209H74.4024V13.0829H77.8701L78.0955 13.8139L79.864 13.431L79.2919 11.5513Z" fill="black"/>
<path d="M91.1144 23.7347L89.9874 19.3313C90.1087 19.1572 90.2128 18.931 90.2994 18.6003L91.0797 15.5022L90.2648 12.5608C90.022 11.6905 89.6753 11.5513 88.895 11.5513H83.6934V23.7173H85.4273V19.7664H88.3055L89.1898 23.7347H91.1144ZM88.5829 18.2H85.4273V13.0829H88.5829C88.6869 13.1526 88.791 13.344 88.843 13.5877L89.3111 15.5022L88.843 17.7126C88.791 17.9215 88.6869 18.1304 88.5829 18.2Z" fill="black"/>
<path d="M102.38 12.8741C102.137 11.7428 101.652 11.5513 100.923 11.5513H97.317C96.5888 11.5513 96.1033 11.7428 95.8605 12.8741L94.8202 17.643L95.8259 22.2727C96.0859 23.4563 96.5888 23.7347 97.317 23.7347H100.923C101.652 23.7347 102.154 23.4563 102.415 22.2727L103.42 17.643L102.38 12.8741ZM100.889 21.3154C100.785 21.8376 100.629 22.0813 100.507 22.1683H97.7331C97.6117 22.0813 97.4557 21.8376 97.3517 21.3154L96.5714 17.643L97.4383 13.7443C97.525 13.3266 97.6117 13.1352 97.7331 13.0829H100.507C100.629 13.1352 100.715 13.3266 100.802 13.7443L101.669 17.643L100.889 21.3154Z" fill="black"/>
<path d="M118.427 11.5513H115.635L113.173 18.8788L110.694 11.5513H107.902L107.538 13.3092V23.7347H109.272V12.9959H109.428L112.393 21.6461H113.936L116.901 12.9959H117.057V23.7347H118.791V13.3092L118.427 11.5513Z" fill="black"/>
<path d="M131.078 23.7347H132.812V11.5513H131.078V23.7347Z" fill="black"/>
<path d="M144.674 12.8741C144.431 11.7428 143.946 11.5513 143.217 11.5513H137.565V23.7347H143.217C143.946 23.7347 144.448 23.4563 144.709 22.2727L145.714 17.643L144.674 12.8741ZM143.183 21.3154C143.079 21.8376 142.923 22.0813 142.801 22.1683H139.299V13.0829H142.801C142.923 13.1352 143.009 13.3266 143.096 13.7443L143.963 17.643L143.183 21.3154Z" fill="black"/>
<path d="M154.941 22.1683H151.56V18.3566H154.559L154.837 17.5734L154.559 16.7728H151.56V13.0829H154.941L155.166 13.8139L156.935 13.431L156.363 11.5513H149.826V23.7347H156.363L156.918 21.8724L155.149 21.4721L154.941 22.1683Z" fill="black"/>
<path d="M167.811 23.7347H169.631L166.545 11.5513H163.459L160.372 23.7347H162.193L162.99 20.4104H167.013L167.811 23.7347ZM163.354 18.844L164.724 13.1177H165.279L166.649 18.844H163.354Z" fill="black"/>
<path d="M72.1811 31.3929H66.827L66.6605 32.2144H69.0879V41.1396H69.934V32.2144H72.3476L72.1811 31.3929Z" fill="black"/>
<path d="M80.2616 32.4511C80.0674 31.5739 79.6929 31.4068 79.138 31.3929H76.5581C76.0032 31.4068 75.6287 31.5739 75.4345 32.4511L74.6023 36.2662L75.4068 39.97C75.6148 40.889 76.0032 41.1257 76.5581 41.1396H79.138C79.6929 41.1257 80.0813 40.889 80.2893 39.97L81.0938 36.2662L80.2616 32.4511ZM79.4848 39.608C79.4016 40.0257 79.2767 40.2206 79.1796 40.2903H76.5164C76.4193 40.2206 76.2945 40.0257 76.2113 39.608L75.5316 36.2662L76.2806 32.7296C76.35 32.3954 76.4193 32.2422 76.5164 32.2005H79.1796C79.2767 32.2422 79.3461 32.3954 79.4155 32.7296L80.1645 36.2662L79.4848 39.608Z" fill="black"/>
<path d="M95.083 41.1396H95.943L93.5572 31.3929H91.7123L89.3265 41.1396H90.1865L90.8385 38.3827H94.431L95.083 41.1396ZM91.0327 37.5333L92.2949 32.2422H92.9746L94.2368 37.5333H91.0327Z" fill="black"/>
<path d="M104.02 32.2005C103.812 31.5043 103.548 31.3929 102.924 31.3929H99.1787V41.1257H100.025V37.5333H102.924C103.548 37.5333 103.812 37.3802 103.992 36.7814L104.699 34.4422L104.02 32.2005ZM103.243 36.2941C103.187 36.4612 103.118 36.6283 103.035 36.684H100.025V32.1865H103.035C103.118 32.2422 103.187 32.3954 103.243 32.5903L103.798 34.4422L103.243 36.2941Z" fill="black"/>
<path d="M112.772 32.2005C112.564 31.5043 112.3 31.3929 111.676 31.3929H107.931V41.1257H108.777V37.5333H111.676C112.3 37.5333 112.564 37.3802 112.744 36.7814L113.451 34.4422L112.772 32.2005ZM111.995 36.2941C111.94 36.4612 111.87 36.6283 111.787 36.684H108.777V32.1865H111.787C111.87 32.2422 111.94 32.3954 111.995 32.5903L112.55 34.4422L111.995 36.2941Z" fill="black"/>
<path d="M123.545 40.3181V31.3929H122.699V41.1396H127.179L127.387 40.3181H123.545Z" fill="black"/>
<path d="M135.959 41.1396H136.819L134.433 31.3929H132.588L130.202 41.1396H131.062L131.714 38.3827H135.307L135.959 41.1396ZM131.908 37.5333L133.171 32.2422H133.85L135.113 37.5333H131.908Z" fill="black"/>
<path d="M144.937 31.3929V38.2713C144.729 39.1067 144.604 39.5384 144.493 39.8725C144.424 40.0953 144.368 40.2346 144.313 40.3042H141.442C141.386 40.2346 141.331 40.0953 141.261 39.8725C141.15 39.5384 141.025 39.1067 140.817 38.2713V31.3929H139.971V38.3688C140.165 39.1485 140.373 39.8168 140.554 40.3738C140.762 41.0004 140.97 41.1396 141.553 41.1396H144.202C144.784 41.1396 144.992 41.0004 145.201 40.3738C145.381 39.8168 145.589 39.1485 145.783 38.3688V31.3929H144.937Z" fill="black"/>
<path d="M154.696 31.3929V39.9839L150.674 31.3929H149.772L149.564 32.3676V41.1396H150.41V32.7017L154.322 41.1396H155.334L155.542 40.1649V31.3929H154.696Z" fill="black"/>
<path d="M163.619 40.2903H160.733C160.636 40.2206 160.511 40.0257 160.428 39.608L159.749 36.2662L160.498 32.7296C160.567 32.3954 160.636 32.2422 160.733 32.2005H163.605L163.993 33.4397L164.811 33.2726L164.243 31.3929H160.817C160.234 31.3929 159.846 31.546 159.651 32.4511L158.819 36.2662L159.624 39.97C159.832 40.9168 160.234 41.1396 160.817 41.1396H164.243L164.811 39.2599L163.993 39.0928L163.619 40.2903Z" fill="black"/>
<path d="M173.154 31.3929V35.6536H169.284V31.3929H168.438V41.1396H169.284V36.503H173.154V41.1396H174V31.3929H173.154Z" fill="black"/>
</svg>
