<svg width="284" height="249" viewBox="0 0 284 249" fill="none" xmlns="http://www.w3.org/2000/svg">
<path d="M280.42 229.14L152.76 8C146.58 -2.67 136.47 -2.67 130.3 8L2.63 229.14C-3.54 239.83 1.51 248.59 13.87 248.59L21.28 248.53C87.41 248.53 134.57 236.32 134.57 160.8H148.27C148.27 236.32 195.43 248.53 261.56 248.53L269.19 248.59C281.54 248.59 286.59 239.83 280.42 229.14ZM62.74 192.76L61.23 195.54L59.71 192.76L56.93 191.24L59.71 189.72L61.23 186.94L62.74 189.72L65.52 191.24L62.74 192.76ZM70.85 170.25L65.09 168.55L59.32 170.24L61 164.47L59.32 158.7L65.08 160.39L70.85 158.7L69.17 164.47L70.85 170.25ZM84.85 140.25L81.85 139.36L78.85 140.25L79.75 137.25L78.85 134.25L81.85 135.14L84.85 134.25L83.96 137.25L84.85 140.25ZM92.56 105.9L90.69 102.47L87.26 100.59L90.69 98.71L92.56 95.28L94.45 98.71L97.88 100.59L94.45 102.47L92.56 105.9ZM106.56 170.32L105 173.07L103.49 170.3L100.71 168.77L103.49 167.25L105 164.47L106.53 167.25L109.3 168.77L106.56 170.32ZM179.56 170.32L178 173.07L176.49 170.3L173.7 168.77L176.49 167.25L178 164.47L179.53 167.25L182.31 168.77L179.56 170.32ZM161.3 144.32C159.5 147.48 155.39 153.59 155.19 153.79C154.198 154.781 152.853 155.339 151.45 155.34H131.16C130.314 155.335 129.482 155.129 128.732 154.737C127.983 154.346 127.337 153.781 126.85 153.09C124.98 150.44 123.13 147.47 121.32 144.32C115.32 145.85 97.92 147.41 97.92 147.41C97.92 147.41 99.68 120.85 108.43 110.95C106.43 101.25 105.95 91.24 107.96 81.75C111.77 63.75 124.14 50.2 137.57 36.75C138.06 36.2593 138.643 35.87 139.283 35.6044C139.924 35.3388 140.611 35.202 141.305 35.202C141.999 35.202 142.686 35.3388 143.327 35.6044C143.967 35.87 144.55 36.2593 145.04 36.75C157.93 49.63 170.85 63.75 174.64 81.75C176.64 91.24 176.18 101.24 174.18 110.96C182.94 120.85 184.7 147.4 184.7 147.4C184.7 147.4 167.27 145.83 161.29 144.29L161.3 144.32ZM192.3 102.48L190.43 105.91L188.55 102.48L185.12 100.6L188.55 98.72L190.43 95.29L192.3 98.72L195.74 100.6L192.3 102.48ZM204.23 140.26L201.23 139.37L198.23 140.26L199.11 137.26L198.23 134.26L201.23 135.15L204.23 134.26L203.35 137.26L204.23 140.26ZM212.18 158.73L217.95 160.42L223.72 158.73L222.03 164.5L223.72 170.27L218 168.55L212.23 170.25L213.92 164.47L212.18 158.73ZM223.34 192.79L221.81 195.57L220.29 192.79L217.51 191.27L220.29 189.75L221.81 186.97L223.34 189.75L226.11 191.27L223.34 192.79Z" fill="#0D2A3E"/>
<path d="M150.71 88C150.71 86.182 150.171 84.4048 149.161 82.8933C148.15 81.3818 146.714 80.2039 145.035 79.5086C143.355 78.8133 141.506 78.6319 139.723 78.9873C137.94 79.3427 136.303 80.219 135.018 81.5052C133.733 82.7915 132.859 84.4299 132.505 86.2133C132.152 87.9966 132.335 89.8447 133.032 91.5238C133.73 93.2029 134.909 94.6375 136.422 95.6461C137.934 96.6547 139.712 97.192 141.53 97.19C142.736 97.19 143.931 96.9522 145.045 96.4903C146.16 96.0283 147.172 95.3512 148.025 94.4977C148.877 93.6442 149.553 92.631 150.014 91.5161C150.475 90.4012 150.711 89.2064 150.71 88Z" fill="#0D2A3E"/>
</svg>
